<svg width="251" height="38" viewBox="0 0 251 38" fill="none" xmlns="http://www.w3.org/2000/svg">
<path d="M22.336 37H10.816V8.52H0.512V0.519997H32.64V8.52H22.336V37ZM36.005 0.519997H62.565V8.2H47.525V14.856H60.197V21.768H47.525V29.192H62.501V37H36.005V0.519997ZM95.2455 35.784C93.6668 36.4667 91.8322 36.9573 89.7415 37.256C87.6508 37.5547 85.7095 37.704 83.9175 37.704C78.1148 37.704 73.5708 36.1893 70.2855 33.16C67.0002 30.1307 65.3575 25.48 65.3575 19.208C65.3575 12.808 67.0855 8.02933 70.5415 4.872C73.9975 1.672 78.8615 0.0719986 85.1335 0.0719986C88.1202 0.0719986 91.2348 0.477332 94.4775 1.288C94.4775 2.14133 94.3922 3.42133 94.2215 5.128C94.0508 6.792 93.8802 7.96533 93.7095 8.648H89.6775C86.7335 8.648 84.4082 8.712 82.7015 8.84C81.0375 8.92533 80.0348 9.11733 79.6935 9.416C79.0535 10.0133 78.5628 11.2293 78.2215 13.064C77.8802 14.856 77.7095 16.584 77.7095 18.248C77.7095 21.1493 78.0722 23.3893 78.7975 24.968C79.5228 26.504 80.4402 27.528 81.5495 28.04C82.6162 28.552 84.3868 28.808 86.8615 28.808C88.8242 28.808 91.3842 28.6373 94.5415 28.296L95.2455 35.784ZM99.514 0.519997H111.098V13.896H121.018V0.519997H132.602V37H121.018V21.256H111.098V37H99.514V0.519997ZM138.947 0.519997H165.123V8.456H150.467V15.688H162.563V22.664H150.467V37H138.947V0.519997ZM168.885 0.519997H180.405V28.552H195.317V37H168.885V0.519997ZM199.514 0.519997H211.034V37H199.514V0.519997ZM223.465 18.312L214.889 0.519997H226.665L232.553 14.856L238.633 0.519997H250.089L241.641 18.312L250.665 37.064H238.889L232.553 21.576L226.025 37.064H214.184L223.465 18.312Z" fill="#DB0101"/>
</svg>
